<svg xmlns="http://www.w3.org/2000/svg" xmlns:xlink="http://www.w3.org/1999/xlink" width="1088" zoomAndPan="magnify" viewBox="0 0 816 516.000002" height="688" preserveAspectRatio="xMidYMid meet" version="1.0"><defs><clipPath id="c38cc5a375"><path d="M 0.789062 0 L 815.210938 0 L 815.210938 515 L 0.789062 515 Z M 0.789062 0 " clip-rule="nonzero"/></clipPath><clipPath id="b17de69937"><path d="M 150.5 0 L 665.5 0 L 665.5 515 L 150.5 515 Z M 150.5 0 " clip-rule="nonzero"/></clipPath></defs><g clip-path="url(#c38cc5a375)"><path fill="#ffffff" d="M 0.789062 0 L 815.210938 0 L 815.210938 522.488281 L 0.789062 522.488281 Z M 0.789062 0 " fill-opacity="1" fill-rule="nonzero"/><path fill="#ffffff" d="M 0.789062 0 L 815.210938 0 L 815.210938 515 L 0.789062 515 Z M 0.789062 0 " fill-opacity="1" fill-rule="nonzero"/><path fill="#ffffff" d="M 0.789062 0 L 815.210938 0 L 815.210938 515 L 0.789062 515 Z M 0.789062 0 " fill-opacity="1" fill-rule="nonzero"/></g><g clip-path="url(#b17de69937)"><path fill="#100f0d" d="M 605.417969 422.964844 L 605.417969 374.082031 L 648.335938 349.539062 L 648.335938 398.421875 Z M 545.332031 349.539062 L 588.25 374.082031 L 588.25 422.964844 L 545.332031 398.421875 Z M 472.339844 395.976562 L 416.582031 364.089844 L 416.582031 331.164062 L 472.339844 299.277344 C 475.023438 297.769531 476.667969 294.917969 476.667969 291.835938 L 476.667969 223.167969 C 476.667969 220.082031 475.023438 217.234375 472.339844 215.722656 L 416.582031 183.839844 L 416.582031 150.914062 L 468.351562 121.308594 L 528.167969 151.214844 L 528.167969 180.25 C 528.167969 183.335938 529.808594 186.183594 532.492188 187.695312 L 588.25 219.578125 L 588.25 295.421875 L 532.492188 327.308594 C 529.808594 328.816406 528.167969 331.667969 528.167969 334.75 L 528.167969 398.65625 L 476.667969 430.84375 L 476.667969 403.417969 C 476.667969 400.332031 475.023438 397.484375 472.339844 395.976562 Z M 416.582031 491.632812 L 416.582031 442.746094 L 459.5 418.203125 L 459.5 467.089844 Z M 356.5 418.203125 L 399.417969 442.746094 L 399.417969 491.632812 L 356.5 467.089844 Z M 287.832031 398.65625 L 287.832031 334.75 C 287.832031 331.667969 286.191406 328.816406 283.507812 327.308594 L 227.75 295.421875 L 227.75 219.578125 L 283.507812 187.695312 C 286.191406 186.183594 287.832031 183.335938 287.832031 180.25 L 287.832031 151.214844 L 347.648438 121.308594 L 399.417969 150.914062 L 399.417969 183.839844 L 343.660156 215.722656 C 340.976562 217.234375 339.332031 220.082031 339.332031 223.167969 L 339.332031 291.835938 C 339.332031 294.917969 340.976562 297.769531 343.660156 299.277344 L 399.417969 331.164062 L 399.417969 364.089844 L 343.660156 395.976562 C 340.976562 397.484375 339.332031 400.332031 339.332031 403.417969 L 339.332031 430.84375 Z M 227.75 422.964844 L 227.75 374.082031 L 270.667969 349.539062 L 270.667969 398.421875 Z M 167.664062 349.539062 L 210.582031 374.082031 L 210.582031 422.964844 L 167.664062 398.421875 Z M 219.164062 359.195312 L 176.382812 334.75 L 219.164062 310.308594 L 261.949219 334.75 Z M 167.664062 126.371094 L 210.582031 150.914062 L 210.582031 199.796875 L 167.664062 175.253906 Z M 219.164062 87.140625 L 261.949219 111.582031 L 219.164062 136.027344 L 176.382812 111.582031 Z M 227.75 150.914062 L 270.667969 126.371094 L 270.667969 175.253906 L 227.75 199.796875 Z M 408 18.472656 L 450.78125 42.917969 L 408 67.359375 L 365.21875 42.917969 Z M 416.582031 82.246094 L 459.5 57.703125 L 459.5 106.589844 L 416.582031 131.132812 Z M 356.5 57.703125 L 399.417969 82.246094 L 399.417969 131.132812 L 356.5 106.589844 Z M 408 247.609375 L 365.21875 223.167969 L 408 198.726562 L 450.78125 223.167969 Z M 416.582031 262.496094 L 459.5 237.953125 L 459.5 286.839844 L 416.582031 311.382812 Z M 356.5 237.953125 L 399.417969 262.496094 L 399.417969 311.382812 L 356.5 286.839844 Z M 408 427.859375 L 365.21875 403.417969 L 408 378.976562 L 450.78125 403.417969 Z M 596.835938 87.140625 L 639.617188 111.582031 L 596.835938 136.027344 L 554.050781 111.582031 Z M 545.332031 126.371094 L 588.25 150.914062 L 588.25 199.796875 L 545.332031 175.253906 Z M 596.835938 359.195312 L 554.050781 334.75 L 596.835938 310.308594 L 639.617188 334.75 Z M 605.417969 199.796875 L 605.417969 150.914062 L 648.335938 126.371094 L 648.335938 175.253906 Z M 661.175781 187.695312 C 663.859375 186.183594 665.5 183.335938 665.5 180.25 L 665.5 111.582031 C 665.5 108.5 663.859375 105.648438 661.175781 104.140625 L 601.09375 69.808594 C 598.476562 68.296875 595.191406 68.296875 592.574219 69.808594 L 532.492188 104.140625 C 529.808594 105.648438 528.167969 108.5 528.167969 111.582031 L 528.167969 132.035156 L 476.667969 106.285156 L 476.667969 42.917969 C 476.667969 39.832031 475.023438 36.980469 472.339844 35.472656 L 412.257812 1.140625 C 409.644531 -0.367188 406.355469 -0.367188 403.742188 1.140625 L 343.660156 35.472656 C 340.976562 36.980469 339.332031 39.832031 339.332031 42.917969 L 339.332031 106.285156 L 287.832031 132.035156 L 287.832031 111.582031 C 287.832031 108.5 286.191406 105.648438 283.507812 104.140625 L 223.425781 69.808594 C 220.808594 68.296875 217.554688 68.296875 214.90625 69.808594 L 154.824219 104.140625 C 152.140625 105.648438 150.5 108.5 150.5 111.582031 L 150.5 180.25 C 150.5 183.335938 152.140625 186.183594 154.824219 187.695312 L 210.582031 219.578125 L 210.582031 295.421875 L 154.824219 327.308594 C 152.140625 328.816406 150.5 331.667969 150.5 334.75 L 150.5 403.417969 C 150.5 406.503906 152.140625 409.351562 154.824219 410.863281 L 214.90625 445.195312 C 216.214844 445.964844 217.691406 446.335938 219.164062 446.335938 C 220.640625 446.335938 222.117188 445.964844 223.425781 445.195312 L 279.046875 413.410156 L 339.332031 451.097656 L 339.332031 472.085938 C 339.332031 475.167969 340.976562 478.019531 343.660156 479.527344 L 403.742188 513.863281 C 405.050781 514.632812 406.523438 515 408 515 C 409.476562 515 410.949219 514.632812 412.257812 513.863281 L 472.339844 479.527344 C 475.023438 478.019531 476.667969 475.167969 476.667969 472.085938 L 476.667969 451.097656 L 536.953125 413.410156 L 592.574219 445.195312 C 593.882812 445.964844 595.359375 446.335938 596.835938 446.335938 C 598.308594 446.335938 599.785156 445.964844 601.09375 445.195312 L 661.175781 410.863281 C 663.859375 409.351562 665.5 406.503906 665.5 403.417969 L 665.5 334.75 C 665.5 331.667969 663.859375 328.816406 661.175781 327.308594 L 605.417969 295.421875 L 605.417969 219.578125 L 661.175781 187.695312 " fill-opacity="1" fill-rule="nonzero"/></g></svg>