<svg xmlns="http://www.w3.org/2000/svg" xmlns:xlink="http://www.w3.org/1999/xlink" width="1088" zoomAndPan="magnify" viewBox="0 0 816 516.000002" height="688" preserveAspectRatio="xMidYMid meet" version="1.0"><defs><clipPath id="ffcbada70d"><path d="M 0.789062 0 L 815.210938 0 L 815.210938 515 L 0.789062 515 Z M 0.789062 0 " clip-rule="nonzero"/></clipPath><clipPath id="ee2e22fc97"><path d="M 56 301 L 215 301 L 215 515 L 56 515 Z M 56 301 " clip-rule="nonzero"/></clipPath><clipPath id="fd17daa297"><path d="M 238 370 L 413 370 L 413 515 L 238 515 Z M 238 370 " clip-rule="nonzero"/></clipPath><clipPath id="2eb3df7d79"><path d="M 435 370 L 643 370 L 643 515 L 435 515 Z M 435 370 " clip-rule="nonzero"/></clipPath><clipPath id="66dfb154cc"><path d="M 653 207 L 760 207 L 760 515 L 653 515 Z M 653 207 " clip-rule="nonzero"/></clipPath><clipPath id="92ac1672f5"><path d="M 405 101.480469 L 521 101.480469 L 521 243 L 405 243 Z M 405 101.480469 " clip-rule="nonzero"/></clipPath><clipPath id="3e9ea59b52"><path d="M 384 101.480469 L 542 101.480469 L 542 263 L 384 263 Z M 384 101.480469 " clip-rule="nonzero"/></clipPath></defs><g clip-path="url(#ffcbada70d)"><path fill="#ffffff" d="M 0.789062 0 L 815.210938 0 L 815.210938 522.488281 L 0.789062 522.488281 Z M 0.789062 0 " fill-opacity="1" fill-rule="nonzero"/><path fill="#ffffff" d="M 0.789062 0 L 815.210938 0 L 815.210938 515 L 0.789062 515 Z M 0.789062 0 " fill-opacity="1" fill-rule="nonzero"/><path fill="#ffffff" d="M 0.789062 0 L 815.210938 0 L 815.210938 515 L 0.789062 515 Z M 0.789062 0 " fill-opacity="1" fill-rule="nonzero"/></g><g clip-path="url(#ee2e22fc97)"><path fill="#ffffff" d="M 206.597656 511.21875 C 209.714844 511.980469 212.054688 513.121094 213.222656 515.023438 C 214.390625 516.921875 214.78125 518.445312 214.78125 520.347656 C 214.78125 524.53125 213.222656 527.953125 210.105469 530.238281 C 191.789062 540.507812 172.300781 545.832031 151.257812 545.832031 C 130.214844 545.832031 115.015625 541.648438 106.050781 533.28125 C 97.089844 524.910156 92.410156 510.835938 92.410156 491.4375 L 92.410156 396.339844 L 67.082031 396.339844 C 64.351562 396.339844 61.234375 395.582031 59.285156 393.679688 C 57.339844 391.777344 56.558594 389.492188 56.558594 386.070312 C 56.558594 383.40625 57.339844 380.363281 59.285156 378.460938 C 61.234375 376.5625 63.574219 375.417969 67.082031 375.417969 L 92.800781 375.417969 L 92.800781 311.515625 C 92.800781 308.851562 93.972656 305.808594 96.308594 303.90625 C 98.648438 302.003906 101.765625 301.246094 104.882812 301.246094 C 108 301.246094 111.117188 302.003906 113.457031 303.90625 C 115.792969 305.808594 116.964844 308.089844 116.964844 311.515625 L 116.964844 375.417969 L 193.738281 375.417969 C 196.464844 375.417969 199.582031 376.5625 201.53125 378.460938 C 203.480469 380.363281 204.257812 383.027344 204.257812 386.070312 C 204.257812 389.113281 203.480469 391.777344 201.53125 393.679688 C 199.582031 395.582031 197.242188 396.339844 193.738281 396.339844 L 116.964844 396.339844 L 116.964844 491.4375 C 116.964844 503.609375 119.691406 512.738281 125.148438 518.066406 C 130.605469 523.390625 140.347656 526.054688 154.765625 526.054688 C 169.183594 526.054688 183.605469 522.25 198.023438 513.878906 C 200.75 510.835938 203.480469 510.457031 206.597656 511.21875 Z M 206.597656 511.21875 " fill-opacity="1" fill-rule="nonzero"/></g><g clip-path="url(#fd17daa297)"><path fill="#ffffff" d="M 263.105469 520.726562 C 246.738281 503.992188 238.941406 483.070312 238.941406 457.964844 C 238.941406 432.476562 247.125 411.554688 263.496094 395.199219 C 279.863281 378.460938 300.90625 370.476562 326.238281 370.476562 C 351.957031 370.476562 372.613281 378.84375 388.589844 395.199219 C 404.960938 411.9375 412.753906 432.859375 412.753906 457.964844 C 412.753906 483.828125 404.570312 504.75 388.589844 520.726562 C 372.222656 537.085938 351.179688 545.453125 325.847656 545.453125 C 300.515625 545.453125 279.082031 537.085938 263.105469 520.726562 Z M 326.238281 524.910156 C 344.945312 524.910156 359.753906 518.445312 371.835938 506.273438 C 383.527344 494.101562 389.371094 477.742188 389.371094 457.964844 C 389.371094 438.183594 383.527344 421.828125 371.835938 409.65625 C 360.144531 397.101562 344.945312 390.636719 326.238281 390.636719 C 307.53125 390.636719 292.722656 397.101562 280.640625 409.65625 C 268.5625 422.207031 263.105469 438.5625 263.105469 457.964844 C 263.105469 477.742188 268.949219 493.71875 280.640625 506.273438 C 292.722656 518.824219 307.53125 524.910156 326.238281 524.910156 Z M 326.238281 524.910156 " fill-opacity="1" fill-rule="nonzero"/></g><g clip-path="url(#2eb3df7d79)"><path fill="#ffffff" d="M 498.488281 406.613281 C 514.46875 382.648438 535.511719 370.476562 561.621094 370.476562 C 588.125 370.476562 608 378.84375 621.636719 395.199219 C 635.277344 411.9375 642.292969 432.476562 642.292969 457.582031 C 642.292969 483.070312 635.277344 503.992188 621.25 520.347656 C 607.21875 537.085938 587.734375 545.453125 562.402344 545.453125 C 537.070312 545.453125 516.417969 537.085938 500.4375 519.96875 L 500.4375 632.5625 C 500.4375 635.222656 499.269531 638.265625 496.929688 640.167969 C 494.59375 642.070312 491.476562 642.832031 488.359375 642.832031 C 485.238281 642.832031 482.121094 642.070312 479.785156 640.167969 C 477.445312 638.265625 476.277344 635.984375 476.277344 632.5625 L 476.277344 403.949219 C 476.277344 398.242188 473.546875 395.582031 467.703125 395.582031 L 446.269531 395.582031 C 443.152344 395.582031 440.421875 394.820312 438.472656 392.917969 C 436.527344 391.015625 435.746094 388.734375 435.746094 385.308594 C 435.746094 382.648438 436.527344 379.605469 438.472656 377.703125 C 440.421875 375.800781 442.761719 374.660156 446.269531 374.660156 L 470.820312 374.660156 C 489.917969 374.660156 499.269531 384.929688 498.488281 406.613281 Z M 500.4375 498.285156 C 519.925781 516.164062 539.410156 524.910156 558.894531 524.910156 C 578.378906 524.910156 592.800781 518.445312 602.933594 506.273438 C 613.066406 494.101562 618.519531 477.363281 618.519531 456.824219 C 618.519531 436.28125 613.84375 420.304688 603.320312 408.511719 C 592.800781 396.722656 579.550781 390.636719 562.011719 390.636719 C 535.902344 390.636719 515.636719 404.710938 500.4375 432.859375 Z M 500.4375 498.285156 " fill-opacity="1" fill-rule="nonzero"/></g><g clip-path="url(#66dfb154cc)"><path fill="#ffffff" d="M 731.535156 519.96875 L 749.464844 519.96875 C 752.191406 519.96875 755.308594 521.109375 757.257812 523.011719 C 759.207031 524.910156 759.984375 527.574219 759.984375 530.617188 C 759.984375 533.660156 759.207031 536.324219 757.257812 538.226562 C 755.308594 540.128906 752.96875 540.886719 749.464844 540.886719 L 731.535156 540.886719 C 706.984375 540.886719 694.515625 531.378906 694.515625 511.980469 L 694.515625 228.210938 L 664.507812 228.210938 C 661.777344 228.210938 658.660156 227.449219 656.710938 225.546875 C 654.761719 223.644531 653.984375 221.363281 653.984375 217.9375 C 653.984375 215.277344 654.761719 212.234375 656.710938 210.332031 C 658.660156 208.429688 661 207.289062 664.507812 207.289062 L 706.59375 207.289062 C 709.710938 207.289062 712.832031 208.429688 715.167969 210.332031 C 717.507812 212.234375 718.675781 214.894531 718.675781 217.9375 L 718.675781 511.21875 C 719.457031 517.304688 723.351562 519.96875 731.535156 519.96875 Z M 731.535156 519.96875 " fill-opacity="1" fill-rule="nonzero"/></g><path stroke-linecap="butt" transform="matrix(3.897101, 0, 0, 3.803872, -278.202291, -217.223459)" fill="none" stroke-linejoin="miter" d="M 121.999528 134.399672 L 146.099975 143.09969 " stroke="#00a18e" stroke-width="2.1" stroke-opacity="1" stroke-miterlimit="4"/><path stroke-linecap="butt" transform="matrix(3.897101, 0, 0, 3.803872, -278.202291, -217.223459)" fill="none" stroke-linejoin="miter" d="M 144.600463 143.500186 L 162.80009 130.899948 " stroke="#00a18e" stroke-width="2.1" stroke-opacity="1" stroke-miterlimit="4"/><path stroke-linecap="butt" transform="matrix(3.897101, 0, 0, 3.803872, -278.202291, -217.223459)" fill="none" stroke-linejoin="miter" d="M 162.80009 130.899948 L 196.799722 131.600303 " stroke="#00a18e" stroke-width="2.1" stroke-opacity="1" stroke-miterlimit="4"/><path stroke-linecap="butt" transform="matrix(3.897101, 0, 0, 3.803872, -278.202291, -217.223459)" fill="none" stroke-linejoin="miter" d="M 185.900194 111.699732 L 162.80009 130.899948 " stroke="#00a18e" stroke-width="2.1" stroke-opacity="1" stroke-miterlimit="4"/><g clip-path="url(#92ac1672f5)"><path fill="#00a18e" d="M 405.347656 242.285156 C 405.347656 242.285156 493.8125 220.601562 511.351562 166.207031 C 528.886719 111.8125 516.027344 101.921875 516.027344 101.921875 C 516.027344 101.921875 496.152344 118.660156 480.5625 123.601562 C 465.363281 129.691406 402.621094 157.839844 405.347656 242.285156 Z M 405.347656 242.285156 " fill-opacity="1" fill-rule="nonzero"/></g><g clip-path="url(#3e9ea59b52)"><path stroke-linecap="butt" transform="matrix(3.897101, 0, 0, 3.803872, -278.202291, -217.223459)" fill="none" stroke-linejoin="miter" d="M 175.3996 120.800246 C 175.3996 120.800246 198.099767 115.099845 202.600308 100.800063 C 207.099847 86.500282 203.800118 83.900135 203.800118 83.900135 C 203.800118 83.900135 198.700173 88.300463 194.699804 89.599509 C 190.799669 91.200469 174.699961 98.600413 175.3996 120.800246 Z M 175.3996 120.800246 " stroke="#00a18e" stroke-width="0.94" stroke-opacity="1" stroke-miterlimit="4"/></g><path stroke-linecap="butt" transform="matrix(3.897101, 0, 0, 3.803872, -278.202291, -217.223459)" fill-opacity="1" fill="#00a18e" fill-rule="nonzero" stroke-linejoin="miter" d="M 182.600465 131.199807 C 182.600465 131.199807 206.400208 119.399535 220.799934 128.400439 C 235.199661 137.499926 234.20032 141.999864 234.20032 141.999864 C 234.20032 141.999864 226.599518 141.999864 222.099979 143.700434 C 217.699673 145.600226 198.300237 151.100379 182.600465 131.199807 Z M 182.600465 131.199807 " stroke="#00a18e" stroke-width="0.94" stroke-opacity="1" stroke-miterlimit="4"/><path fill="#00a18e" d="M 302.855469 325.207031 C 302.855469 333.578125 295.839844 340.042969 287.65625 340.042969 C 279.082031 340.042969 272.457031 333.195312 272.457031 325.207031 C 272.457031 316.839844 279.472656 310.375 287.65625 310.375 C 295.839844 310.375 302.855469 316.839844 302.855469 325.207031 Z M 302.855469 325.207031 " fill-opacity="1" fill-rule="nonzero"/><path fill="#00a18e" d="M 375.339844 279.941406 C 375.339844 288.3125 368.328125 294.777344 360.144531 294.777344 C 351.570312 294.777344 344.945312 287.929688 344.945312 279.941406 C 344.945312 271.574219 351.957031 265.109375 360.144531 265.109375 C 368.328125 265.109375 375.339844 271.953125 375.339844 279.941406 Z M 375.339844 279.941406 " fill-opacity="1" fill-rule="nonzero"/><path fill="#00a18e" d="M 212.441406 294.015625 C 212.441406 302.386719 205.429688 308.851562 197.242188 308.851562 C 188.671875 308.851562 182.046875 302.003906 182.046875 294.015625 C 182.046875 285.648438 189.058594 279.183594 197.242188 279.183594 C 205.816406 278.800781 212.441406 285.648438 212.441406 294.015625 Z M 212.441406 294.015625 " fill-opacity="1" fill-rule="nonzero"/></svg>