<svg xmlns="http://www.w3.org/2000/svg" xmlns:xlink="http://www.w3.org/1999/xlink" width="1088" zoomAndPan="magnify" viewBox="0 0 816 516.000002" height="688" preserveAspectRatio="xMidYMid meet" version="1.0"><defs><clipPath id="29df10bed4"><path d="M 150.5 0 L 665.5 0 L 665.5 515 L 150.5 515 Z M 150.5 0 " clip-rule="nonzero"/></clipPath></defs><path fill="#000000" d="M 316 266.488281 L 381.199219 331.679688 L 499.65625 213.222656 L 469.414062 182.972656 L 384.398438 267.992188 C 382.632812 269.753906 379.761719 269.757812 378.011719 267.992188 L 346.253906 236.238281 Z M 381.199219 342.585938 C 380.046875 342.585938 378.890625 342.144531 378.011719 341.261719 L 306.425781 269.679688 C 305.578125 268.832031 305.097656 267.683594 305.097656 266.488281 C 305.097656 265.289062 305.578125 264.140625 306.425781 263.292969 L 343.054688 226.65625 C 344.820312 224.890625 347.6875 224.894531 349.441406 226.65625 L 381.199219 258.410156 L 466.214844 173.394531 C 467.980469 171.632812 470.835938 171.632812 472.601562 173.394531 L 509.242188 210.03125 C 510.089844 210.875 510.558594 212.027344 510.558594 213.226562 C 510.558594 214.421875 510.089844 215.570312 509.242188 216.417969 L 384.398438 341.261719 C 383.515625 342.144531 382.351562 342.585938 381.199219 342.585938 Z M 381.199219 342.585938 " fill-opacity="1" fill-rule="evenodd"/><g clip-path="url(#29df10bed4)"><path fill="#000000" d="M 309.933594 426.84375 C 310.683594 426.84375 311.449219 427.035156 312.140625 427.425781 C 325.75 435.09375 340.242188 441.101562 355.214844 445.289062 C 357.167969 445.832031 358.519531 447.613281 358.519531 449.636719 L 358.523438 493.167969 C 358.523438 500.109375 364.164062 505.757812 371.105469 505.757812 L 444.5625 505.753906 C 451.5 505.753906 457.144531 500.109375 457.144531 493.167969 L 457.144531 449.640625 C 457.144531 447.613281 458.5 445.835938 460.449219 445.292969 C 475.449219 441.097656 489.9375 435.089844 503.523438 427.429688 C 505.292969 426.433594 507.5 426.738281 508.933594 428.171875 L 539.730469 458.960938 C 544.632812 463.871094 552.621094 463.871094 557.523438 458.960938 L 609.46875 407.023438 C 611.832031 404.660156 613.136719 401.5 613.136719 398.121094 C 613.136719 394.746094 611.832031 391.585938 609.464844 389.222656 L 578.671875 358.425781 C 577.238281 356.992188 576.933594 354.78125 577.929688 353.015625 C 585.601562 339.414062 591.613281 324.921875 595.785156 309.941406 C 596.339844 307.988281 598.117188 306.640625 600.140625 306.640625 L 643.671875 306.640625 C 650.613281 306.640625 656.257812 300.996094 656.257812 294.050781 L 656.257812 220.597656 C 656.257812 213.660156 650.609375 208.011719 643.671875 208.011719 L 600.152344 208.011719 C 598.117188 208.011719 596.339844 206.664062 595.796875 204.710938 C 591.601562 189.714844 585.589844 175.222656 577.929688 161.636719 C 576.933594 159.867188 577.238281 157.65625 578.671875 156.222656 L 609.46875 125.429688 C 614.371094 120.523438 614.371094 112.539062 609.464844 107.628906 L 557.523438 55.691406 C 555.160156 53.328125 552.007812 52.023438 548.632812 52.023438 C 545.257812 52.023438 542.09375 53.328125 539.726562 55.691406 L 508.925781 86.488281 C 507.5 87.917969 505.289062 88.222656 503.511719 87.226562 C 489.917969 79.558594 475.425781 73.550781 460.449219 69.367188 C 458.5 68.820312 457.144531 67.042969 457.144531 65.015625 L 457.144531 21.484375 C 457.144531 14.542969 451.5 8.894531 444.5625 8.894531 L 371.105469 8.894531 C 364.167969 8.894531 358.519531 14.542969 358.519531 21.484375 L 358.523438 65.015625 C 358.523438 67.042969 357.167969 68.820312 355.214844 69.367188 C 340.230469 73.546875 325.738281 79.558594 312.140625 87.226562 C 310.378906 88.222656 308.167969 87.917969 306.730469 86.484375 L 275.9375 55.691406 C 273.574219 53.328125 270.410156 52.023438 267.035156 52.023438 C 263.65625 52.023438 260.492188 53.328125 258.128906 55.691406 L 206.199219 107.628906 C 201.28125 112.539062 201.28125 120.523438 206.199219 125.433594 L 236.980469 156.222656 C 238.417969 157.65625 238.722656 159.867188 237.722656 161.636719 C 230.054688 175.234375 224.054688 189.726562 219.867188 204.710938 C 219.316406 206.664062 217.539062 208.011719 215.515625 208.011719 L 171.984375 208.011719 C 165.042969 208.011719 159.398438 213.660156 159.398438 220.601562 L 159.398438 294.050781 C 159.398438 300.992188 165.042969 306.640625 171.984375 306.640625 L 215.515625 306.640625 C 217.539062 306.640625 219.316406 307.992188 219.867188 309.941406 C 224.054688 324.941406 230.066406 339.433594 237.722656 353.019531 C 238.722656 354.785156 238.417969 356.996094 236.980469 358.429688 L 206.199219 389.21875 C 201.28125 394.128906 201.28125 402.117188 206.199219 407.027344 L 258.128906 458.960938 C 260.496094 461.328125 263.65625 462.628906 267.035156 462.628906 C 270.410156 462.628906 273.574219 461.328125 275.9375 458.964844 L 306.734375 428.167969 C 307.605469 427.296875 308.753906 426.84375 309.933594 426.84375 Z M 444.5625 514.789062 L 371.105469 514.789062 C 359.179688 514.789062 349.488281 505.089844 349.488281 493.167969 L 349.488281 453.03125 C 336.078125 449.039062 323.058594 443.644531 310.71875 436.957031 L 282.328125 465.347656 C 278.257812 469.417969 272.820312 471.664062 267.035156 471.664062 C 261.246094 471.660156 255.8125 469.421875 251.742188 465.351562 L 199.8125 413.410156 C 191.378906 404.980469 191.378906 391.265625 199.800781 382.835938 L 228.195312 354.445312 C 221.515625 342.113281 216.113281 329.101562 212.117188 315.675781 L 171.984375 315.675781 C 160.070312 315.675781 150.363281 305.976562 150.363281 294.054688 L 150.363281 220.597656 C 150.363281 208.679688 160.070312 198.980469 171.984375 198.980469 L 212.117188 198.980469 C 216.117188 185.5625 221.503906 172.550781 228.195312 160.207031 L 199.8125 131.820312 C 191.378906 123.386719 191.378906 109.671875 199.8125 101.242188 L 251.742188 49.300781 C 255.8125 45.230469 261.246094 42.992188 267.035156 42.992188 C 272.820312 42.988281 278.253906 45.234375 282.324219 49.304688 L 310.722656 77.695312 C 323.058594 71.007812 336.066406 65.613281 349.488281 61.617188 L 349.488281 21.484375 C 349.488281 9.5625 359.179688 -0.136719 371.105469 -0.136719 L 444.5625 -0.136719 C 456.476562 -0.136719 466.179688 9.5625 466.179688 21.484375 L 466.179688 61.617188 C 479.589844 65.613281 492.597656 71.007812 504.949219 77.695312 L 533.34375 49.300781 C 537.410156 45.230469 542.832031 42.992188 548.632812 42.992188 C 554.421875 42.988281 559.84375 45.234375 563.910156 49.304688 L 615.855469 101.238281 C 624.289062 109.671875 624.285156 123.390625 615.851562 131.820312 L 587.460938 160.207031 C 594.152344 172.542969 599.539062 185.554688 603.539062 198.980469 L 643.671875 198.980469 C 655.597656 198.980469 665.289062 208.679688 665.289062 220.601562 L 665.289062 294.050781 C 665.289062 305.972656 655.597656 315.675781 643.671875 315.675781 L 603.539062 315.675781 C 599.539062 329.082031 594.152344 342.097656 587.457031 354.441406 L 615.855469 382.835938 C 619.925781 386.90625 622.167969 392.335938 622.167969 398.121094 C 622.171875 403.910156 619.921875 409.34375 615.851562 413.410156 L 563.914062 465.347656 C 555.488281 473.777344 541.761719 473.78125 533.339844 465.351562 L 504.949219 436.960938 C 492.621094 443.640625 479.601562 449.039062 466.179688 453.039062 L 466.179688 493.167969 C 466.179688 505.089844 456.476562 514.792969 444.5625 514.792969 Z M 444.5625 514.789062 " fill-opacity="1" fill-rule="evenodd"/></g><path fill="#000000" d="M 407.828125 111.9375 C 327.667969 111.9375 262.445312 177.160156 262.445312 257.328125 C 262.449219 337.496094 327.667969 402.71875 407.828125 402.71875 C 488 402.714844 553.21875 337.496094 553.21875 257.328125 C 553.222656 177.160156 487.996094 111.9375 407.828125 111.9375 Z M 407.828125 411.75 C 322.683594 411.75 253.414062 342.476562 253.414062 257.328125 C 253.414062 172.179688 322.679688 102.90625 407.828125 102.90625 C 492.972656 102.90625 562.253906 172.179688 562.253906 257.328125 C 562.253906 342.476562 492.972656 411.75 407.828125 411.75 Z M 407.828125 411.75 " fill-opacity="1" fill-rule="evenodd"/></svg>