<?xml version="1.0" encoding="UTF-8" standalone="no"?>
<!DOCTYPE svg PUBLIC "-//W3C//DTD SVG 1.1//EN" "http://www.w3.org/Graphics/SVG/1.1/DTD/svg11.dtd">
<svg width="100%" height="100%" viewBox="0 0 881 679" version="1.1" xmlns="http://www.w3.org/2000/svg" xmlns:xlink="http://www.w3.org/1999/xlink" xml:space="preserve" xmlns:serif="http://www.serif.com/" style="fill-rule:evenodd;clip-rule:evenodd;">
    <g id="Artboard1" transform="matrix(1,0,0,0.95365,-71.6485,-152.151)">
        <rect x="71.649" y="159.545" width="880.783" height="711.545" style="fill:none;"/>
        <clipPath id="_clip1">
            <rect x="71.649" y="159.545" width="880.783" height="711.545"/>
        </clipPath>
        <g clip-path="url(#_clip1)">
            <g id="g4371" transform="matrix(1,0,0,1.0486,0.648534,-7.18238)">
                <g id="g39" transform="matrix(4.82807,0,0,4.71376,-338.443,-235.939)">
                    <path id="path41" d="M124.4,191.5C125.2,191.7 125.8,192 126.1,192.5C126.4,193 126.5,193.4 126.5,193.9C126.5,195 126.1,195.9 125.3,196.5C120.6,199.2 115.6,200.6 110.2,200.6C104.8,200.6 100.9,199.5 98.6,197.3C96.3,195.1 95.1,191.4 95.1,186.3L95.1,161.3L88.6,161.3C87.9,161.3 87.1,161.1 86.6,160.6C86.1,160.1 85.9,159.5 85.9,158.6C85.9,157.9 86.1,157.1 86.6,156.6C87.1,156.1 87.7,155.8 88.6,155.8L95.2,155.8L95.2,139C95.2,138.3 95.5,137.5 96.1,137C96.7,136.5 97.5,136.3 98.3,136.3C99.1,136.3 99.9,136.5 100.5,137C101.1,137.5 101.4,138.1 101.4,139L101.4,155.8L121.1,155.8C121.8,155.8 122.6,156.1 123.1,156.6C123.6,157.1 123.8,157.8 123.8,158.6C123.8,159.4 123.6,160.1 123.1,160.6C122.6,161.1 122,161.3 121.1,161.3L101.4,161.3L101.4,186.3C101.4,189.5 102.1,191.9 103.5,193.3C104.9,194.7 107.4,195.4 111.1,195.4C114.8,195.4 118.5,194.4 122.2,192.2C122.9,191.4 123.6,191.3 124.4,191.5Z" style="fill:white;fill-rule:nonzero;"/>
                    <path id="path43" d="M138.9,194C134.7,189.6 132.7,184.1 132.7,177.5C132.7,170.8 134.8,165.3 139,161C143.2,156.6 148.6,154.5 155.1,154.5C161.7,154.5 167,156.7 171.1,161C175.3,165.4 177.3,170.9 177.3,177.5C177.3,184.3 175.2,189.8 171.1,194C166.9,198.3 161.5,200.5 155,200.5C148.5,200.5 143,198.3 138.9,194ZM155.1,195.1C159.9,195.1 163.7,193.4 166.8,190.2C169.8,187 171.3,182.7 171.3,177.5C171.3,172.3 169.8,168 166.8,164.8C163.8,161.5 159.9,159.8 155.1,159.8C150.3,159.8 146.5,161.5 143.4,164.8C140.3,168.1 138.9,172.4 138.9,177.5C138.9,182.7 140.4,186.9 143.4,190.2C146.5,193.5 150.3,195.1 155.1,195.1Z" style="fill:white;fill-rule:nonzero;"/>
                    <path id="path45" d="M199.3,164C203.4,157.7 208.8,154.5 215.5,154.5C222.3,154.5 227.4,156.7 230.9,161C234.4,165.4 236.2,170.8 236.2,177.4C236.2,184.1 234.4,189.6 230.8,193.9C227.2,198.3 222.2,200.5 215.7,200.5C209.2,200.5 203.9,198.3 199.8,193.8L199.8,223.4C199.8,224.1 199.5,224.9 198.9,225.4C198.3,225.9 197.5,226.1 196.7,226.1C195.9,226.1 195.1,225.9 194.5,225.4C193.9,224.9 193.6,224.3 193.6,223.4L193.6,163.3C193.6,161.8 192.9,161.1 191.4,161.1L185.9,161.1C185.1,161.1 184.4,160.9 183.9,160.4C183.4,159.9 183.2,159.3 183.2,158.4C183.2,157.7 183.4,156.9 183.9,156.4C184.4,155.9 185,155.6 185.9,155.6L192.2,155.6C197.1,155.6 199.5,158.3 199.3,164ZM199.8,188.1C204.8,192.8 209.8,195.1 214.8,195.1C219.8,195.1 223.5,193.4 226.1,190.2C228.7,187 230.1,182.6 230.1,177.2C230.1,171.8 228.9,167.6 226.2,164.5C223.5,161.4 220.1,159.8 215.6,159.8C208.9,159.8 203.7,163.5 199.8,170.9L199.8,188.1Z" style="fill:white;fill-rule:nonzero;"/>
                    <path id="path47" d="M259.1,193.8L263.7,193.8C264.4,193.8 265.2,194.1 265.7,194.6C266.2,195.1 266.4,195.8 266.4,196.6C266.4,197.4 266.2,198.1 265.7,198.6C265.2,199.1 264.6,199.3 263.7,199.3L259.1,199.3C252.8,199.3 249.6,196.8 249.6,191.7L249.6,117.1L241.9,117.1C241.2,117.1 240.4,116.9 239.9,116.4C239.4,115.9 239.2,115.3 239.2,114.4C239.2,113.7 239.4,112.9 239.9,112.4C240.4,111.9 241,111.6 241.9,111.6L252.7,111.6C253.5,111.6 254.3,111.9 254.9,112.4C255.5,112.9 255.8,113.6 255.8,114.4L255.8,191.5C256,193.1 257,193.8 259.1,193.8Z" style="fill:white;fill-rule:nonzero;"/>
                </g>
                <g id="g49" transform="matrix(4.82807,0,0,4.71376,-338.443,-235.939)">
                    <g id="g51">
                        <path id="line53" d="M122,134.4L146.1,143.1" style="fill:none;fill-rule:nonzero;stroke:rgb(0,161,142);stroke-width:2.1px;"/>
                        <path id="line55" d="M144.6,143.5L162.8,130.9" style="fill:none;fill-rule:nonzero;stroke:rgb(0,161,142);stroke-width:2.1px;"/>
                        <path id="line57" d="M162.8,130.9L196.8,131.6" style="fill:none;fill-rule:nonzero;stroke:rgb(0,161,142);stroke-width:2.1px;"/>
                        <path id="line59" d="M185.9,111.7L162.8,130.9" style="fill:none;fill-rule:nonzero;stroke:rgb(0,161,142);stroke-width:2.1px;"/>
                        <path id="path61" d="M175.4,120.8C175.4,120.8 198.1,115.1 202.6,100.8C207.1,86.5 203.8,83.9 203.8,83.9C203.8,83.9 198.7,88.3 194.7,89.6C190.8,91.2 174.7,98.6 175.4,120.8Z" style="fill:rgb(0,161,142);fill-rule:nonzero;stroke:rgb(0,161,142);stroke-width:0.94px;"/>
                        <path id="path63" d="M182.6,131.2C182.6,131.2 206.4,119.4 220.8,128.4C235.2,137.5 234.2,142 234.2,142C234.2,142 226.6,142 222.1,143.7C217.7,145.6 198.3,151.1 182.6,131.2Z" style="fill:rgb(0,161,142);fill-rule:nonzero;stroke:rgb(0,161,142);stroke-width:0.94px;"/>
                    </g>
                    <path id="path65" d="M149.1,142.6C149.1,144.8 147.3,146.5 145.2,146.5C143,146.5 141.3,144.7 141.3,142.6C141.3,140.4 143.1,138.7 145.2,138.7C147.3,138.7 149.1,140.4 149.1,142.6Z" style="fill:rgb(0,161,142);fill-rule:nonzero;"/>
                    <path id="path67" d="M167.7,130.7C167.7,132.9 165.9,134.6 163.8,134.6C161.6,134.6 159.9,132.8 159.9,130.7C159.9,128.5 161.7,126.8 163.8,126.8C165.9,126.8 167.7,128.6 167.7,130.7Z" style="fill:rgb(0,161,142);fill-rule:nonzero;"/>
                    <path id="path69" d="M125.9,134.4C125.9,136.6 124.1,138.3 122,138.3C119.8,138.3 118.1,136.5 118.1,134.4C118.1,132.2 119.9,130.5 122,130.5C124.2,130.4 125.9,132.2 125.9,134.4Z" style="fill:rgb(0,161,142);fill-rule:nonzero;"/>
                </g>
            </g>
        </g>
    </g>
</svg>
