<svg xmlns="http://www.w3.org/2000/svg" xmlns:xlink="http://www.w3.org/1999/xlink" width="1088" zoomAndPan="magnify" viewBox="0 0 816 516.000002" height="688" preserveAspectRatio="xMidYMid meet" version="1.0"><defs><clipPath id="19d414b8bf"><path d="M 0.789062 0 L 815.210938 0 L 815.210938 515 L 0.789062 515 Z M 0.789062 0 " clip-rule="nonzero"/></clipPath><clipPath id="54682201bf"><path d="M 152.109375 0 L 656 0 L 656 503 L 152.109375 503 Z M 152.109375 0 " clip-rule="nonzero"/></clipPath></defs><g clip-path="url(#19d414b8bf)"><path fill="#ffffff" d="M 0.789062 0 L 815.210938 0 L 815.210938 522.488281 L 0.789062 522.488281 Z M 0.789062 0 " fill-opacity="1" fill-rule="nonzero"/><path fill="#ffffff" d="M 0.789062 0 L 815.210938 0 L 815.210938 515 L 0.789062 515 Z M 0.789062 0 " fill-opacity="1" fill-rule="nonzero"/><path fill="#ffffff" d="M 0.789062 0 L 815.210938 0 L 815.210938 515 L 0.789062 515 Z M 0.789062 0 " fill-opacity="1" fill-rule="nonzero"/></g><g clip-path="url(#54682201bf)"><path fill="#000000" d="M 542.058594 275.953125 C 540.394531 275.953125 538.773438 276.128906 537.125 276.203125 L 537.125 15.007812 C 537.125 14.035156 537.027344 13.074219 536.839844 12.121094 C 536.648438 11.167969 536.367188 10.242188 535.996094 9.34375 C 535.625 8.445312 535.167969 7.59375 534.628906 6.785156 C 534.085938 5.976562 533.472656 5.230469 532.785156 4.542969 C 532.097656 3.855469 531.351562 3.242188 530.542969 2.703125 C 529.734375 2.164062 528.878906 1.707031 527.980469 1.335938 C 527.082031 0.960938 526.15625 0.679688 525.203125 0.492188 C 524.25 0.300781 523.289062 0.207031 522.316406 0.207031 L 166.917969 0.207031 C 165.945312 0.207031 164.980469 0.300781 164.027344 0.492188 C 163.074219 0.679688 162.148438 0.960938 161.25 1.335938 C 160.351562 1.707031 159.5 2.164062 158.691406 2.703125 C 157.882812 3.242188 157.132812 3.855469 156.445312 4.542969 C 155.757812 5.230469 155.144531 5.976562 154.605469 6.785156 C 154.066406 7.59375 153.609375 8.445312 153.238281 9.34375 C 152.863281 10.242188 152.582031 11.167969 152.394531 12.121094 C 152.203125 13.074219 152.109375 14.035156 152.109375 15.007812 L 152.109375 439.320312 C 152.109375 440.289062 152.203125 441.253906 152.394531 442.207031 C 152.582031 443.160156 152.863281 444.085938 153.238281 444.980469 C 153.609375 445.878906 154.066406 446.734375 154.605469 447.539062 C 155.144531 448.347656 155.757812 449.097656 156.445312 449.785156 C 157.132812 450.472656 157.882812 451.085938 158.691406 451.625 C 159.5 452.164062 160.351562 452.621094 161.25 452.992188 C 162.148438 453.363281 163.074219 453.644531 164.027344 453.835938 C 164.980469 454.023438 165.945312 454.121094 166.917969 454.121094 L 448.910156 454.121094 C 450.296875 456.113281 451.742188 458.058594 453.253906 459.957031 C 454.765625 461.859375 456.332031 463.707031 457.960938 465.507812 C 459.589844 467.304688 461.277344 469.050781 463.015625 470.742188 C 464.757812 472.433594 466.550781 474.066406 468.398438 475.640625 C 470.242188 477.21875 472.136719 478.730469 474.082031 480.1875 C 476.023438 481.640625 478.011719 483.03125 480.042969 484.359375 C 482.074219 485.683594 484.148438 486.945312 486.261719 488.140625 C 488.375 489.332031 490.523438 490.457031 492.710938 491.515625 C 494.894531 492.570312 497.113281 493.554688 499.363281 494.46875 C 501.609375 495.382812 503.886719 496.222656 506.1875 496.992188 C 508.492188 497.757812 510.816406 498.453125 513.164062 499.070312 C 515.511719 499.691406 517.875 500.234375 520.257812 500.699219 C 522.640625 501.167969 525.035156 501.558594 527.441406 501.871094 C 529.847656 502.183594 532.261719 502.421875 534.683594 502.578125 C 537.109375 502.738281 539.53125 502.820312 541.960938 502.820312 C 544.386719 502.824219 546.8125 502.75 549.234375 502.597656 C 551.65625 502.445312 554.074219 502.214844 556.480469 501.90625 C 558.890625 501.601562 561.285156 501.214844 563.667969 500.753906 C 566.050781 500.292969 568.417969 499.757812 570.765625 499.144531 C 573.113281 498.53125 575.441406 497.84375 577.746094 497.082031 C 580.050781 496.320312 582.328125 495.484375 584.578125 494.578125 C 586.832031 493.667969 589.050781 492.6875 591.238281 491.640625 C 593.425781 490.589844 595.578125 489.46875 597.695312 488.28125 C 599.8125 487.089844 601.886719 485.835938 603.921875 484.515625 C 605.957031 483.191406 607.949219 481.808594 609.898438 480.359375 C 611.84375 478.910156 613.742188 477.398438 615.589844 475.828125 C 617.441406 474.257812 619.238281 472.628906 620.984375 470.941406 C 622.730469 469.253906 624.417969 467.511719 626.050781 465.71875 C 627.6875 463.925781 629.261719 462.078125 630.773438 460.183594 C 632.289062 458.285156 633.742188 456.34375 635.132812 454.355469 C 636.523438 452.367188 637.847656 450.335938 639.109375 448.261719 C 640.367188 446.1875 641.558594 444.074219 642.683594 441.925781 C 643.808594 439.773438 644.863281 437.589844 645.847656 435.371094 C 646.832031 433.152344 647.742188 430.90625 648.582031 428.628906 C 649.421875 426.355469 650.1875 424.050781 650.878906 421.726562 C 651.574219 419.402344 652.1875 417.054688 652.730469 414.691406 C 653.273438 412.324219 653.738281 409.945312 654.125 407.550781 C 654.515625 405.15625 654.828125 402.75 655.058594 400.335938 C 655.292969 397.917969 655.453125 395.5 655.53125 393.074219 C 655.609375 390.648438 655.609375 388.222656 655.535156 385.800781 C 655.457031 383.375 655.300781 380.953125 655.070312 378.539062 C 654.839844 376.125 654.527344 373.71875 654.140625 371.324219 C 653.753906 368.925781 653.292969 366.546875 652.753906 364.179688 C 652.214844 361.816406 651.597656 359.46875 650.910156 357.144531 C 650.21875 354.816406 649.453125 352.515625 648.617188 350.238281 C 647.78125 347.960938 646.871094 345.710938 645.886719 343.492188 C 644.90625 341.273438 643.851562 339.089844 642.730469 336.9375 C 641.609375 334.785156 640.417969 332.671875 639.160156 330.597656 C 637.902344 328.523438 636.578125 326.492188 635.191406 324.5 C 633.800781 322.511719 632.351562 320.566406 630.835938 318.667969 C 629.324219 316.773438 627.75 314.925781 626.121094 313.128906 C 624.488281 311.332031 622.800781 309.589844 621.054688 307.902344 C 619.3125 306.214844 617.515625 304.585938 615.667969 303.011719 C 613.820312 301.4375 611.921875 299.925781 609.976562 298.476562 C 608.03125 297.023438 606.042969 295.636719 604.007812 294.3125 C 601.972656 292.992188 599.898438 291.734375 597.78125 290.542969 C 595.667969 289.351562 593.515625 288.230469 591.328125 287.179688 C 589.140625 286.125 586.921875 285.144531 584.671875 284.234375 C 582.421875 283.324219 580.144531 282.488281 577.839844 281.722656 C 575.535156 280.960938 573.210938 280.269531 570.863281 279.65625 C 568.515625 279.039062 566.148438 278.5 563.765625 278.039062 C 561.382812 277.574219 558.988281 277.1875 556.582031 276.878906 C 554.171875 276.570312 551.757812 276.335938 549.335938 276.183594 C 546.914062 276.027344 544.488281 275.953125 542.058594 275.953125 Z M 181.726562 424.515625 L 181.726562 29.808594 L 507.507812 29.808594 L 507.507812 281.367188 C 505.730469 281.933594 503.96875 282.539062 502.222656 283.191406 C 500.476562 283.84375 498.746094 284.539062 497.035156 285.273438 C 495.320312 286.011719 493.628906 286.789062 491.953125 287.609375 C 490.28125 288.429688 488.628906 289.292969 486.996094 290.195312 C 485.363281 291.09375 483.757812 292.035156 482.171875 293.019531 C 480.585938 294 479.027344 295.019531 477.492188 296.078125 C 475.957031 297.136719 474.449219 298.230469 472.96875 299.363281 C 471.492188 300.496094 470.039062 301.664062 468.617188 302.867188 C 467.191406 304.070312 465.800781 305.308594 464.4375 306.582031 C 463.078125 307.855469 461.75 309.160156 460.453125 310.5 C 459.15625 311.839844 457.890625 313.207031 456.660156 314.609375 C 455.433594 316.007812 454.238281 317.441406 453.078125 318.898438 C 451.921875 320.359375 450.796875 321.847656 449.710938 323.363281 C 448.628906 324.875 447.578125 326.417969 446.570312 327.984375 C 445.5625 329.550781 444.589844 331.140625 443.660156 332.757812 C 442.730469 334.371094 441.839844 336.007812 440.988281 337.664062 C 440.140625 339.324219 439.332031 341.003906 438.5625 342.699219 C 437.796875 344.398438 437.074219 346.117188 436.390625 347.851562 C 435.707031 349.582031 435.070312 351.332031 434.472656 353.097656 C 433.878906 354.863281 433.324219 356.644531 432.816406 358.4375 C 432.308594 360.230469 431.847656 362.035156 431.425781 363.851562 C 431.007812 365.664062 430.632812 367.492188 430.304688 369.324219 C 429.976562 371.160156 429.695312 373 429.457031 374.847656 C 429.21875 376.695312 429.027344 378.550781 428.878906 380.40625 C 428.734375 382.265625 428.632812 384.125 428.578125 385.988281 C 428.523438 387.851562 428.515625 389.714844 428.550781 391.578125 C 428.589844 393.4375 428.671875 395.300781 428.804688 397.160156 C 428.933594 399.019531 429.109375 400.871094 429.328125 402.722656 C 429.550781 404.574219 429.816406 406.417969 430.128906 408.253906 C 430.441406 410.089844 430.796875 411.917969 431.199219 413.738281 C 431.601562 415.558594 432.050781 417.367188 432.539062 419.164062 C 433.03125 420.960938 433.566406 422.746094 434.148438 424.515625 Z M 542.058594 473.304688 C 540.6875 473.304688 539.3125 473.273438 537.941406 473.203125 C 536.570312 473.136719 535.203125 473.035156 533.835938 472.902344 C 532.46875 472.765625 531.105469 472.597656 529.746094 472.398438 C 528.390625 472.195312 527.035156 471.960938 525.6875 471.695312 C 524.34375 471.425781 523.003906 471.125 521.671875 470.792969 C 520.339844 470.457031 519.015625 470.09375 517.699219 469.695312 C 516.386719 469.296875 515.082031 468.867188 513.789062 468.402344 C 512.496094 467.941406 511.214844 467.445312 509.949219 466.921875 C 508.679688 466.394531 507.421875 465.839844 506.183594 465.253906 C 504.941406 464.667969 503.714844 464.050781 502.503906 463.402344 C 501.292969 462.753906 500.097656 462.078125 498.917969 461.371094 C 497.742188 460.667969 496.582031 459.933594 495.441406 459.171875 C 494.296875 458.40625 493.175781 457.617188 492.074219 456.800781 C 490.96875 455.980469 489.886719 455.136719 488.824219 454.265625 C 487.765625 453.394531 486.722656 452.5 485.707031 451.578125 C 484.6875 450.65625 483.695312 449.710938 482.722656 448.738281 C 481.753906 447.769531 480.804688 446.773438 479.882812 445.757812 C 478.960938 444.742188 478.066406 443.703125 477.195312 442.640625 C 476.324219 441.578125 475.476562 440.496094 474.660156 439.394531 C 473.84375 438.292969 473.050781 437.171875 472.289062 436.027344 C 471.523438 434.886719 470.789062 433.730469 470.085938 432.550781 C 469.378906 431.375 468.703125 430.179688 468.054688 428.96875 C 467.40625 427.757812 466.789062 426.53125 466.203125 425.292969 C 465.617188 424.050781 465.058594 422.796875 464.535156 421.527344 C 464.007812 420.261719 463.515625 418.980469 463.050781 417.6875 C 462.589844 416.394531 462.160156 415.09375 461.757812 413.777344 C 461.359375 412.464844 460.996094 411.140625 460.660156 409.8125 C 460.328125 408.480469 460.027344 407.140625 459.757812 405.792969 C 459.492188 404.449219 459.257812 403.09375 459.054688 401.738281 C 458.851562 400.378906 458.683594 399.019531 458.550781 397.652344 C 458.414062 396.285156 458.316406 394.917969 458.246094 393.546875 C 458.179688 392.175781 458.144531 390.804688 458.144531 389.429688 C 458.144531 388.058594 458.179688 386.6875 458.246094 385.316406 C 458.316406 383.945312 458.414062 382.574219 458.550781 381.210938 C 458.683594 379.84375 458.851562 378.480469 459.054688 377.125 C 459.257812 375.765625 459.492188 374.414062 459.757812 373.066406 C 460.027344 371.722656 460.328125 370.382812 460.660156 369.050781 C 460.996094 367.71875 461.359375 366.398438 461.757812 365.082031 C 462.160156 363.769531 462.589844 362.464844 463.050781 361.175781 C 463.515625 359.882812 464.007812 358.601562 464.535156 357.332031 C 465.058594 356.066406 465.617188 354.808594 466.203125 353.570312 C 466.789062 352.328125 467.40625 351.101562 468.054688 349.890625 C 468.703125 348.679688 469.378906 347.488281 470.085938 346.308594 C 470.789062 345.132812 471.523438 343.972656 472.289062 342.832031 C 473.050781 341.691406 473.839844 340.570312 474.660156 339.464844 C 475.476562 338.363281 476.324219 337.28125 477.195312 336.222656 C 478.066406 335.160156 478.960938 334.121094 479.882812 333.101562 C 480.804688 332.085938 481.753906 331.09375 482.722656 330.121094 C 483.695312 329.152344 484.6875 328.203125 485.707031 327.28125 C 486.722656 326.363281 487.765625 325.464844 488.824219 324.59375 C 489.886719 323.722656 490.96875 322.878906 492.074219 322.0625 C 493.175781 321.242188 494.296875 320.453125 495.441406 319.691406 C 496.582031 318.929688 497.742188 318.195312 498.917969 317.488281 C 500.097656 316.78125 501.292969 316.105469 502.503906 315.460938 C 503.714844 314.8125 504.941406 314.195312 506.183594 313.609375 C 507.421875 313.019531 508.679688 312.464844 509.949219 311.941406 C 511.214844 311.414062 512.496094 310.921875 513.789062 310.457031 C 515.082031 309.996094 516.386719 309.566406 517.699219 309.167969 C 519.015625 308.769531 520.339844 308.402344 521.671875 308.070312 C 523.003906 307.734375 524.34375 307.433594 525.6875 307.167969 C 527.035156 306.898438 528.390625 306.664062 529.746094 306.464844 C 531.105469 306.261719 532.46875 306.09375 533.835938 305.960938 C 535.203125 305.824219 536.570312 305.722656 537.941406 305.65625 C 539.3125 305.589844 540.6875 305.554688 542.058594 305.554688 C 543.433594 305.554688 544.804688 305.589844 546.175781 305.65625 C 547.550781 305.722656 548.917969 305.824219 550.285156 305.960938 C 551.652344 306.09375 553.015625 306.261719 554.371094 306.464844 C 555.730469 306.664062 557.082031 306.898438 558.429688 307.167969 C 559.777344 307.433594 561.117188 307.734375 562.449219 308.070312 C 563.78125 308.402344 565.105469 308.769531 566.417969 309.167969 C 567.734375 309.566406 569.035156 309.996094 570.328125 310.457031 C 571.621094 310.921875 572.902344 311.414062 574.171875 311.941406 C 575.441406 312.464844 576.695312 313.019531 577.9375 313.609375 C 579.179688 314.195312 580.40625 314.8125 581.617188 315.460938 C 582.828125 316.105469 584.023438 316.78125 585.199219 317.488281 C 586.378906 318.195312 587.539062 318.929688 588.679688 319.691406 C 589.820312 320.453125 590.945312 321.242188 592.046875 322.0625 C 593.148438 322.878906 594.234375 323.722656 595.292969 324.59375 C 596.355469 325.464844 597.394531 326.363281 598.414062 327.28125 C 599.429688 328.203125 600.425781 329.152344 601.394531 330.121094 C 602.367188 331.09375 603.3125 332.085938 604.234375 333.101562 C 605.15625 334.121094 606.054688 335.160156 606.925781 336.222656 C 607.796875 337.28125 608.640625 338.363281 609.460938 339.464844 C 610.277344 340.570312 611.070312 341.691406 611.832031 342.832031 C 612.59375 343.972656 613.328125 345.132812 614.035156 346.308594 C 614.742188 347.488281 615.417969 348.679688 616.066406 349.890625 C 616.710938 351.101562 617.328125 352.328125 617.917969 353.570312 C 618.503906 354.808594 619.058594 356.066406 619.585938 357.332031 C 620.113281 358.601562 620.605469 359.882812 621.066406 361.175781 C 621.53125 362.464844 621.960938 363.769531 622.359375 365.082031 C 622.757812 366.398438 623.125 367.71875 623.457031 369.050781 C 623.792969 370.382812 624.09375 371.722656 624.359375 373.066406 C 624.628906 374.414062 624.863281 375.765625 625.066406 377.125 C 625.265625 378.480469 625.433594 379.84375 625.570312 381.210938 C 625.703125 382.574219 625.804688 383.945312 625.871094 385.316406 C 625.941406 386.6875 625.972656 388.058594 625.972656 389.429688 C 625.972656 390.804688 625.9375 392.175781 625.867188 393.542969 C 625.800781 394.914062 625.695312 396.285156 625.558594 397.648438 C 625.425781 399.015625 625.253906 400.375 625.050781 401.734375 C 624.847656 403.089844 624.613281 404.441406 624.34375 405.785156 C 624.074219 407.132812 623.773438 408.472656 623.4375 409.800781 C 623.105469 411.132812 622.738281 412.453125 622.335938 413.765625 C 621.9375 415.078125 621.507812 416.382812 621.042969 417.675781 C 620.582031 418.964844 620.085938 420.246094 619.558594 421.511719 C 619.03125 422.78125 618.476562 424.035156 617.890625 425.273438 C 617.300781 426.515625 616.683594 427.738281 616.035156 428.949219 C 615.386719 430.160156 614.710938 431.351562 614.003906 432.53125 C 613.296875 433.707031 612.5625 434.863281 611.800781 436.003906 C 611.039062 437.144531 610.246094 438.269531 609.429688 439.371094 C 608.609375 440.472656 607.765625 441.554688 606.894531 442.613281 C 606.023438 443.675781 605.128906 444.714844 604.207031 445.730469 C 603.285156 446.746094 602.335938 447.738281 601.367188 448.710938 C 600.394531 449.679688 599.402344 450.625 598.386719 451.546875 C 597.367188 452.46875 596.328125 453.367188 595.265625 454.238281 C 594.207031 455.105469 593.125 455.953125 592.023438 456.769531 C 590.917969 457.585938 589.796875 458.378906 588.65625 459.140625 C 587.515625 459.902344 586.355469 460.636719 585.179688 461.34375 C 584 462.046875 582.808594 462.726562 581.597656 463.371094 C 580.386719 464.019531 579.160156 464.636719 577.921875 465.226562 C 576.679688 465.8125 575.425781 466.367188 574.15625 466.894531 C 572.890625 467.421875 571.609375 467.914062 570.316406 468.378906 C 569.023438 468.839844 567.722656 469.273438 566.40625 469.671875 C 565.09375 470.070312 563.773438 470.4375 562.441406 470.773438 C 561.109375 471.105469 559.769531 471.410156 558.421875 471.679688 C 557.078125 471.945312 555.726562 472.183594 554.367188 472.386719 C 553.011719 472.589844 551.648438 472.757812 550.28125 472.894531 C 548.914062 473.027344 547.546875 473.132812 546.175781 473.199219 C 544.804688 473.269531 543.433594 473.304688 542.058594 473.304688 Z M 542.058594 473.304688 " fill-opacity="1" fill-rule="nonzero"/></g><path fill="#000000" d="M 571.011719 355.984375 L 525.632812 401.339844 L 508.183594 383.898438 C 507.496094 383.214844 506.746094 382.601562 505.9375 382.0625 C 505.128906 381.523438 504.277344 381.066406 503.378906 380.695312 C 502.480469 380.324219 501.554688 380.042969 500.601562 379.855469 C 499.648438 379.667969 498.6875 379.574219 497.714844 379.574219 C 496.742188 379.574219 495.78125 379.667969 494.828125 379.859375 C 493.875 380.046875 492.949219 380.328125 492.050781 380.699219 C 491.152344 381.074219 490.300781 381.527344 489.492188 382.066406 C 488.683594 382.609375 487.9375 383.222656 487.25 383.90625 C 486.5625 384.59375 485.949219 385.339844 485.410156 386.148438 C 484.871094 386.957031 484.414062 387.808594 484.042969 388.707031 C 483.667969 389.605469 483.390625 390.527344 483.199219 391.480469 C 483.007812 392.433594 482.914062 393.394531 482.914062 394.367188 C 482.914062 395.339844 483.007812 396.300781 483.195312 397.253906 C 483.386719 398.207031 483.664062 399.128906 484.039062 400.027344 C 484.410156 400.925781 484.863281 401.777344 485.402344 402.585938 C 485.941406 403.394531 486.554688 404.140625 487.242188 404.828125 L 515.160156 432.738281 C 515.847656 433.425781 516.597656 434.039062 517.40625 434.578125 C 518.214844 435.117188 519.066406 435.574219 519.964844 435.945312 C 520.863281 436.316406 521.789062 436.597656 522.742188 436.789062 C 523.695312 436.976562 524.660156 437.074219 525.632812 437.074219 C 526.605469 437.074219 527.566406 436.976562 528.519531 436.789062 C 529.472656 436.597656 530.402344 436.316406 531.296875 435.945312 C 532.195312 435.574219 533.050781 435.117188 533.859375 434.578125 C 534.667969 434.039062 535.414062 433.425781 536.101562 432.738281 L 591.953125 376.914062 C 592.640625 376.226562 593.253906 375.476562 593.792969 374.671875 C 594.332031 373.863281 594.789062 373.007812 595.160156 372.113281 C 595.53125 371.214844 595.8125 370.289062 596.003906 369.335938 C 596.191406 368.382812 596.289062 367.417969 596.289062 366.449219 C 596.289062 365.476562 596.191406 364.515625 596.003906 363.5625 C 595.8125 362.609375 595.53125 361.683594 595.160156 360.785156 C 594.789062 359.886719 594.332031 359.035156 593.792969 358.226562 C 593.253906 357.417969 592.636719 356.671875 591.953125 355.984375 C 591.265625 355.296875 590.515625 354.683594 589.707031 354.140625 C 588.898438 353.601562 588.046875 353.144531 587.148438 352.773438 C 586.25 352.402344 585.324219 352.121094 584.371094 351.933594 C 583.417969 351.742188 582.453125 351.648438 581.480469 351.648438 C 580.507812 351.648438 579.546875 351.742188 578.59375 351.933594 C 577.640625 352.121094 576.714844 352.402344 575.816406 352.773438 C 574.917969 353.148438 574.0625 353.601562 573.253906 354.140625 C 572.445312 354.683594 571.699219 355.296875 571.011719 355.984375 Z M 571.011719 355.984375 " fill-opacity="1" fill-rule="nonzero"/><path fill="#000000" d="M 455.359375 227.800781 C 455.359375 225.375 455.183594 222.960938 454.828125 220.558594 C 454.46875 218.160156 453.941406 215.800781 453.234375 213.476562 C 452.53125 211.15625 451.660156 208.898438 450.621094 206.703125 C 449.585938 204.511719 448.390625 202.40625 447.042969 200.386719 C 445.695312 198.371094 444.207031 196.460938 442.574219 194.664062 C 440.945312 192.867188 439.191406 191.199219 437.316406 189.660156 C 435.4375 188.121094 433.460938 186.726562 431.378906 185.480469 C 429.296875 184.230469 427.132812 183.144531 424.890625 182.214844 C 422.648438 181.289062 420.351562 180.527344 417.996094 179.9375 C 415.640625 179.347656 413.253906 178.9375 410.839844 178.699219 C 408.421875 178.460938 406.003906 178.402344 403.578125 178.519531 C 401.15625 178.640625 398.753906 178.9375 396.371094 179.410156 C 393.992188 179.882812 391.65625 180.527344 389.371094 181.347656 C 387.085938 182.164062 384.875 183.144531 382.734375 184.289062 C 380.59375 185.433594 378.546875 186.726562 376.597656 188.171875 C 374.648438 189.617188 372.816406 191.199219 371.097656 192.914062 L 350.140625 213.847656 C 349.226562 214.765625 348.351562 215.722656 347.511719 216.714844 C 346.675781 217.703125 345.875 218.726562 345.121094 219.777344 C 344.363281 220.832031 343.648438 221.914062 342.976562 223.023438 C 342.304688 224.132812 341.675781 225.265625 341.09375 226.425781 C 340.511719 227.585938 339.976562 228.765625 339.488281 229.96875 C 338.996094 231.167969 338.558594 232.386719 338.164062 233.625 C 337.769531 234.859375 337.429688 236.109375 337.132812 237.375 C 336.839844 238.636719 336.597656 239.910156 336.402344 241.191406 C 336.210938 242.476562 336.066406 243.765625 335.976562 245.058594 C 335.882812 246.351562 335.84375 247.648438 335.855469 248.945312 C 335.863281 250.242188 335.925781 251.535156 336.039062 252.828125 C 336.152344 254.121094 336.316406 255.40625 336.53125 256.6875 C 336.746094 257.964844 337.011719 259.234375 337.324219 260.492188 C 337.640625 261.75 338.003906 262.996094 338.417969 264.222656 C 338.832031 265.453125 339.292969 266.664062 339.800781 267.859375 C 340.308594 269.050781 340.863281 270.222656 341.464844 271.371094 L 326.832031 286 C 325.679688 285.398438 324.507812 284.84375 323.316406 284.335938 C 322.121094 283.828125 320.910156 283.367188 319.679688 282.957031 C 318.449219 282.542969 317.203125 282.179688 315.945312 281.863281 C 314.683594 281.550781 313.414062 281.285156 312.136719 281.070312 C 310.855469 280.855469 309.570312 280.695312 308.277344 280.582031 C 306.984375 280.46875 305.6875 280.40625 304.390625 280.394531 C 303.09375 280.386719 301.796875 280.425781 300.5 280.515625 C 299.207031 280.609375 297.917969 280.75 296.636719 280.945312 C 295.351562 281.136719 294.078125 281.382812 292.8125 281.675781 C 291.550781 281.96875 290.300781 282.3125 289.0625 282.707031 C 287.824219 283.097656 286.605469 283.539062 285.402344 284.027344 C 284.203125 284.515625 283.019531 285.050781 281.859375 285.632812 C 280.703125 286.214844 279.566406 286.84375 278.457031 287.515625 C 277.34375 288.1875 276.261719 288.902344 275.210938 289.65625 C 274.15625 290.414062 273.132812 291.210938 272.140625 292.050781 C 271.152344 292.886719 270.195312 293.761719 269.273438 294.675781 L 269.273438 294.6875 L 248.332031 315.617188 C 247.1875 316.757812 246.101562 317.953125 245.074219 319.203125 C 244.046875 320.453125 243.082031 321.75 242.183594 323.089844 C 241.28125 324.433594 240.449219 325.820312 239.6875 327.246094 C 238.921875 328.671875 238.230469 330.128906 237.609375 331.625 C 236.988281 333.117188 236.445312 334.636719 235.972656 336.183594 C 235.503906 337.730469 235.109375 339.296875 234.792969 340.882812 C 234.476562 342.46875 234.238281 344.066406 234.078125 345.675781 C 233.917969 347.285156 233.839844 348.898438 233.835938 350.515625 C 233.835938 352.132812 233.914062 353.746094 234.074219 355.355469 C 234.230469 356.964844 234.46875 358.5625 234.78125 360.148438 C 235.097656 361.734375 235.488281 363.300781 235.957031 364.847656 C 236.425781 366.398438 236.972656 367.917969 237.589844 369.410156 C 238.207031 370.90625 238.898438 372.367188 239.660156 373.792969 C 240.421875 375.21875 241.253906 376.605469 242.152344 377.949219 C 243.050781 379.292969 244.015625 380.589844 245.039062 381.839844 C 246.066406 383.089844 247.152344 384.289062 248.296875 385.429688 C 249.4375 386.574219 250.636719 387.660156 251.886719 388.683594 C 253.136719 389.710938 254.4375 390.671875 255.78125 391.570312 C 257.125 392.46875 258.511719 393.300781 259.9375 394.0625 C 261.367188 394.824219 262.828125 395.511719 264.320312 396.132812 C 265.816406 396.75 267.339844 397.292969 268.886719 397.761719 C 270.433594 398.230469 272.003906 398.625 273.589844 398.9375 C 275.175781 399.253906 276.773438 399.488281 278.386719 399.648438 C 279.996094 399.804688 281.609375 399.882812 283.226562 399.882812 C 284.84375 399.882812 286.457031 399.800781 288.070312 399.640625 C 289.679688 399.484375 291.277344 399.246094 292.863281 398.929688 C 294.449219 398.613281 296.015625 398.21875 297.566406 397.746094 C 299.113281 397.277344 300.632812 396.730469 302.128906 396.113281 C 303.621094 395.492188 305.082031 394.800781 306.507812 394.035156 C 307.933594 393.273438 309.320312 392.441406 310.664062 391.542969 C 312.007812 390.640625 313.304688 389.679688 314.554688 388.652344 C 315.804688 387.625 317 386.539062 318.140625 385.394531 L 339.082031 364.464844 C 340.007812 363.546875 340.894531 362.597656 341.746094 361.613281 C 342.59375 360.628906 343.402344 359.609375 344.171875 358.5625 C 344.9375 357.511719 345.664062 356.429688 346.34375 355.324219 C 347.023438 354.214844 347.660156 353.082031 348.25 351.921875 C 348.839844 350.761719 349.382812 349.582031 349.878906 348.378906 C 350.375 347.175781 350.820312 345.957031 351.21875 344.71875 C 351.617188 343.480469 351.960938 342.226562 352.257812 340.960938 C 352.558594 339.695312 352.800781 338.417969 352.996094 337.132812 C 353.191406 335.847656 353.335938 334.554688 353.425781 333.257812 C 353.515625 331.960938 353.554688 330.660156 353.542969 329.359375 C 353.527344 328.058594 353.464844 326.761719 353.34375 325.46875 C 353.226562 324.171875 353.058594 322.882812 352.839844 321.601562 C 352.617188 320.320312 352.34375 319.050781 352.023438 317.789062 C 351.699219 316.527344 351.328125 315.285156 350.90625 314.054688 C 350.480469 312.824219 350.011719 311.613281 349.492188 310.421875 C 348.972656 309.226562 348.402344 308.058594 347.789062 306.910156 L 362.382812 292.328125 C 363.527344 292.941406 364.699219 293.507812 365.890625 294.027344 C 367.085938 294.546875 368.296875 295.015625 369.527344 295.441406 C 370.757812 295.863281 372.003906 296.234375 373.265625 296.558594 C 374.523438 296.878906 375.796875 297.152344 377.078125 297.371094 C 378.359375 297.59375 379.648438 297.761719 380.945312 297.878906 C 382.242188 297.996094 383.539062 298.0625 384.839844 298.074219 C 386.140625 298.089844 387.441406 298.050781 388.738281 297.960938 C 390.039062 297.867188 391.328125 297.726562 392.617188 297.53125 C 393.902344 297.335938 395.179688 297.089844 396.445312 296.792969 C 397.714844 296.496094 398.964844 296.152344 400.207031 295.753906 C 401.445312 295.355469 402.664062 294.910156 403.867188 294.414062 C 405.070312 293.917969 406.253906 293.378906 407.414062 292.785156 C 408.574219 292.195312 409.707031 291.5625 410.816406 290.882812 C 411.925781 290.199219 413.003906 289.476562 414.054688 288.707031 C 415.105469 287.941406 416.121094 287.132812 417.109375 286.285156 C 418.09375 285.433594 419.042969 284.546875 419.960938 283.625 L 440.898438 262.691406 C 443.199219 260.40625 445.25 257.917969 447.054688 255.226562 C 448.863281 252.53125 450.386719 249.6875 451.625 246.695312 C 452.867188 243.699219 453.800781 240.613281 454.429688 237.433594 C 455.058594 234.25 455.367188 231.039062 455.359375 227.800781 Z M 318.140625 343.53125 L 297.203125 364.464844 C 296.746094 364.921875 296.265625 365.359375 295.765625 365.769531 C 295.269531 366.183594 294.75 366.566406 294.210938 366.929688 C 293.671875 367.289062 293.117188 367.625 292.546875 367.929688 C 291.976562 368.238281 291.394531 368.515625 290.792969 368.765625 C 290.195312 369.011719 289.585938 369.230469 288.96875 369.421875 C 288.347656 369.609375 287.722656 369.769531 287.085938 369.894531 C 286.449219 370.023438 285.8125 370.117188 285.164062 370.183594 C 284.519531 370.246094 283.875 370.28125 283.226562 370.28125 C 282.578125 370.28125 281.933594 370.25 281.289062 370.1875 C 280.644531 370.125 280.003906 370.03125 279.367188 369.90625 C 278.730469 369.78125 278.105469 369.625 277.484375 369.4375 C 276.863281 369.25 276.253906 369.03125 275.65625 368.785156 C 275.058594 368.535156 274.472656 368.261719 273.898438 367.953125 C 273.328125 367.648438 272.773438 367.316406 272.234375 366.957031 C 271.695312 366.597656 271.175781 366.214844 270.675781 365.800781 C 270.175781 365.390625 269.695312 364.957031 269.238281 364.5 C 268.777344 364.042969 268.34375 363.5625 267.933594 363.0625 C 267.523438 362.5625 267.136719 362.042969 266.777344 361.503906 C 266.417969 360.964844 266.085938 360.410156 265.78125 359.839844 C 265.472656 359.265625 265.199219 358.683594 264.949219 358.082031 C 264.703125 357.484375 264.484375 356.875 264.296875 356.257812 C 264.109375 355.636719 263.953125 355.007812 263.828125 354.375 C 263.703125 353.738281 263.609375 353.097656 263.546875 352.453125 C 263.480469 351.808594 263.453125 351.164062 263.453125 350.515625 C 263.453125 349.867188 263.484375 349.222656 263.550781 348.578125 C 263.613281 347.933594 263.710938 347.292969 263.839844 346.660156 C 263.964844 346.023438 264.125 345.394531 264.3125 344.777344 C 264.503906 344.15625 264.722656 343.550781 264.96875 342.949219 C 265.21875 342.351562 265.496094 341.769531 265.804688 341.199219 C 266.109375 340.628906 266.445312 340.074219 266.804688 339.535156 C 267.167969 339 267.554688 338.480469 267.964844 337.980469 C 268.378906 337.480469 268.8125 337.003906 269.273438 336.546875 L 290.214844 315.625 C 291.902344 313.945312 293.835938 312.617188 296.011719 311.644531 C 298.1875 310.671875 300.46875 310.113281 302.847656 309.972656 L 299.246094 313.574219 C 298.554688 314.261719 297.941406 315.007812 297.398438 315.816406 C 296.855469 316.625 296.398438 317.476562 296.023438 318.375 C 295.648438 319.273438 295.367188 320.199219 295.175781 321.15625 C 294.984375 322.109375 294.886719 323.074219 294.886719 324.046875 C 294.882812 325.019531 294.980469 325.984375 295.167969 326.9375 C 295.355469 327.890625 295.636719 328.820312 296.007812 329.71875 C 296.382812 330.617188 296.839844 331.472656 297.378906 332.28125 C 297.917969 333.089844 298.535156 333.839844 299.222656 334.527344 C 299.910156 335.214844 300.660156 335.832031 301.46875 336.371094 C 302.28125 336.910156 303.132812 337.367188 304.035156 337.738281 C 304.933594 338.109375 305.859375 338.390625 306.816406 338.582031 C 307.769531 338.769531 308.734375 338.863281 309.710938 338.863281 C 310.683594 338.863281 311.648438 338.765625 312.601562 338.574219 C 313.554688 338.382812 314.484375 338.101562 315.382812 337.726562 C 316.28125 337.351562 317.132812 336.894531 317.941406 336.351562 C 318.75 335.808594 319.5 335.195312 320.1875 334.503906 L 323.792969 330.898438 C 323.652344 333.277344 323.09375 335.554688 322.121094 337.730469 C 321.148438 339.90625 319.820312 341.839844 318.140625 343.53125 Z M 419.957031 241.761719 L 399.019531 262.691406 C 397.328125 264.371094 395.394531 265.695312 393.21875 266.667969 C 391.042969 267.640625 388.765625 268.195312 386.386719 268.335938 L 389.984375 264.734375 C 390.671875 264.046875 391.289062 263.300781 391.828125 262.492188 C 392.367188 261.683594 392.824219 260.832031 393.195312 259.933594 C 393.566406 259.035156 393.847656 258.109375 394.039062 257.15625 C 394.226562 256.203125 394.324219 255.242188 394.324219 254.269531 C 394.324219 253.296875 394.226562 252.335938 394.039062 251.382812 C 393.847656 250.429688 393.566406 249.503906 393.195312 248.605469 C 392.824219 247.707031 392.367188 246.855469 391.828125 246.046875 C 391.289062 245.238281 390.671875 244.492188 389.984375 243.804688 C 389.296875 243.117188 388.550781 242.503906 387.742188 241.964844 C 386.933594 241.425781 386.082031 240.96875 385.183594 240.597656 C 384.285156 240.226562 383.359375 239.945312 382.40625 239.753906 C 381.453125 239.566406 380.488281 239.46875 379.515625 239.46875 C 378.542969 239.46875 377.582031 239.566406 376.628906 239.753906 C 375.675781 239.945312 374.75 240.226562 373.851562 240.597656 C 372.953125 240.96875 372.097656 241.425781 371.289062 241.964844 C 370.480469 242.503906 369.734375 243.117188 369.046875 243.804688 L 365.449219 247.402344 C 365.589844 245.023438 366.144531 242.75 367.117188 240.574219 C 368.089844 238.398438 369.414062 236.46875 371.089844 234.777344 L 392.039062 213.84375 L 392.050781 213.84375 C 392.507812 213.390625 392.984375 212.957031 393.484375 212.550781 C 393.984375 212.140625 394.503906 211.757812 395.042969 211.402344 C 395.582031 211.042969 396.132812 210.714844 396.703125 210.410156 C 397.273438 210.109375 397.859375 209.832031 398.453125 209.585938 C 399.050781 209.339844 399.660156 209.125 400.277344 208.9375 C 400.894531 208.753906 401.523438 208.597656 402.15625 208.472656 C 402.789062 208.347656 403.425781 208.253906 404.070312 208.191406 C 404.710938 208.128906 405.355469 208.097656 406.003906 208.101562 C 406.648438 208.101562 407.292969 208.132812 407.933594 208.199219 C 408.578125 208.261719 409.214844 208.355469 409.847656 208.484375 C 410.480469 208.609375 411.105469 208.765625 411.722656 208.957031 C 412.34375 209.144531 412.949219 209.359375 413.546875 209.609375 C 414.140625 209.855469 414.726562 210.132812 415.292969 210.4375 C 415.863281 210.742188 416.417969 211.074219 416.953125 211.433594 C 417.488281 211.792969 418.007812 212.175781 418.507812 212.585938 C 419.003906 212.996094 419.484375 213.429688 419.9375 213.882812 C 420.394531 214.339844 420.828125 214.820312 421.238281 215.316406 C 421.648438 215.816406 422.03125 216.335938 422.390625 216.871094 C 422.75 217.40625 423.082031 217.960938 423.386719 218.53125 C 423.691406 219.097656 423.964844 219.683594 424.210938 220.277344 C 424.460938 220.875 424.675781 221.480469 424.863281 222.097656 C 425.050781 222.714844 425.210938 223.34375 425.335938 223.976562 C 425.460938 224.609375 425.558594 225.246094 425.621094 225.886719 C 425.683594 226.53125 425.714844 227.171875 425.71875 227.820312 C 425.71875 228.464844 425.6875 229.109375 425.625 229.75 C 425.5625 230.394531 425.464844 231.03125 425.339844 231.664062 C 425.214844 232.296875 425.058594 232.921875 424.875 233.539062 C 424.6875 234.160156 424.46875 234.765625 424.222656 235.363281 C 423.976562 235.957031 423.703125 236.542969 423.398438 237.113281 C 423.09375 237.679688 422.765625 238.234375 422.40625 238.773438 C 422.046875 239.308594 421.664062 239.828125 421.257812 240.328125 C 420.847656 240.828125 420.414062 241.304688 419.960938 241.761719 Z M 419.957031 241.761719 " fill-opacity="1" fill-rule="nonzero"/><path fill="#000000" d="M 255.765625 133.421875 L 433.464844 133.421875 C 434.4375 133.421875 435.402344 133.324219 436.355469 133.136719 C 437.308594 132.945312 438.234375 132.664062 439.132812 132.292969 C 440.03125 131.921875 440.882812 131.464844 441.691406 130.925781 C 442.5 130.386719 443.25 129.773438 443.9375 129.085938 C 444.625 128.398438 445.238281 127.648438 445.777344 126.84375 C 446.320312 126.035156 446.773438 125.179688 447.148438 124.28125 C 447.519531 123.386719 447.800781 122.460938 447.988281 121.507812 C 448.179688 120.554688 448.273438 119.589844 448.273438 118.617188 C 448.273438 117.648438 448.179688 116.683594 447.988281 115.730469 C 447.800781 114.777344 447.519531 113.851562 447.148438 112.953125 C 446.773438 112.058594 446.320312 111.203125 445.777344 110.394531 C 445.238281 109.585938 444.625 108.839844 443.9375 108.152344 C 443.25 107.464844 442.5 106.851562 441.691406 106.3125 C 440.882812 105.773438 440.03125 105.316406 439.132812 104.945312 C 438.234375 104.570312 437.308594 104.292969 436.355469 104.101562 C 435.402344 103.914062 434.4375 103.816406 433.464844 103.816406 L 255.765625 103.816406 C 254.792969 103.816406 253.832031 103.914062 252.878906 104.101562 C 251.921875 104.292969 250.996094 104.570312 250.097656 104.945312 C 249.203125 105.316406 248.347656 105.773438 247.539062 106.3125 C 246.730469 106.851562 245.984375 107.464844 245.296875 108.152344 C 244.609375 108.839844 243.992188 109.585938 243.453125 110.394531 C 242.914062 111.203125 242.457031 112.058594 242.085938 112.953125 C 241.714844 113.851562 241.433594 114.777344 241.242188 115.730469 C 241.054688 116.683594 240.957031 117.648438 240.957031 118.617188 C 240.957031 119.589844 241.054688 120.554688 241.242188 121.507812 C 241.433594 122.460938 241.714844 123.386719 242.085938 124.28125 C 242.457031 125.179688 242.914062 126.035156 243.453125 126.84375 C 243.992188 127.648438 244.609375 128.398438 245.296875 129.085938 C 245.984375 129.773438 246.730469 130.386719 247.539062 130.925781 C 248.347656 131.464844 249.203125 131.921875 250.097656 132.292969 C 250.996094 132.664062 251.921875 132.945312 252.878906 133.136719 C 253.832031 133.324219 254.792969 133.421875 255.765625 133.421875 Z M 255.765625 133.421875 " fill-opacity="1" fill-rule="nonzero"/><path fill="#000000" d="M 255.765625 84.082031 L 433.464844 84.082031 C 434.4375 84.082031 435.402344 83.988281 436.355469 83.796875 C 437.308594 83.609375 438.234375 83.328125 439.132812 82.957031 C 440.03125 82.582031 440.882812 82.128906 441.691406 81.585938 C 442.5 81.046875 443.25 80.433594 443.9375 79.746094 C 444.625 79.058594 445.238281 78.3125 445.777344 77.503906 C 446.320312 76.695312 446.773438 75.84375 447.148438 74.945312 C 447.519531 74.046875 447.800781 73.121094 447.988281 72.167969 C 448.179688 71.214844 448.273438 70.253906 448.273438 69.28125 C 448.273438 68.308594 448.179688 67.347656 447.988281 66.394531 C 447.800781 65.441406 447.519531 64.515625 447.148438 63.617188 C 446.773438 62.71875 446.320312 61.867188 445.777344 61.058594 C 445.238281 60.25 444.625 59.5 443.9375 58.8125 C 443.25 58.128906 442.5 57.511719 441.691406 56.972656 C 440.882812 56.433594 440.03125 55.976562 439.132812 55.605469 C 438.234375 55.234375 437.308594 54.953125 436.355469 54.761719 C 435.402344 54.574219 434.4375 54.480469 433.464844 54.480469 L 255.765625 54.480469 C 254.792969 54.480469 253.832031 54.574219 252.878906 54.761719 C 251.921875 54.953125 250.996094 55.234375 250.097656 55.605469 C 249.203125 55.976562 248.347656 56.433594 247.539062 56.972656 C 246.730469 57.511719 245.984375 58.128906 245.296875 58.8125 C 244.609375 59.5 243.992188 60.25 243.453125 61.058594 C 242.914062 61.867188 242.457031 62.71875 242.085938 63.617188 C 241.714844 64.515625 241.433594 65.441406 241.242188 66.394531 C 241.054688 67.347656 240.957031 68.308594 240.957031 69.28125 C 240.957031 70.253906 241.054688 71.214844 241.242188 72.167969 C 241.433594 73.121094 241.714844 74.046875 242.085938 74.945312 C 242.457031 75.84375 242.914062 76.695312 243.453125 77.503906 C 243.992188 78.3125 244.609375 79.058594 245.296875 79.746094 C 245.984375 80.433594 246.730469 81.046875 247.539062 81.585938 C 248.347656 82.128906 249.203125 82.582031 250.097656 82.957031 C 250.996094 83.328125 251.921875 83.609375 252.878906 83.796875 C 253.832031 83.988281 254.792969 84.082031 255.765625 84.082031 Z M 255.765625 84.082031 " fill-opacity="1" fill-rule="nonzero"/></svg>